<svg xmlns="http://www.w3.org/2000/svg" width="44" height="36"><path fill-rule="evenodd" fill="#ff3b4a" d="M42.081 11.446c0-.032-.026-.047-.031-.078-.008-.069.005-.14-.024-.205l-4.12-9.697a.728.728 0 00-.668-.44H6.84a.728.728 0 00-.669.44l-4.122 9.697c-.029.066-.016.136-.026.205-.003.031-.03.046-.03.078 0 .014.017.026.017.042a.71.71 0 00.163.434l19.32 21.833c.015.019.044.011.06.03.053.047.095.089.158.123.013.005.016.028.034.034.095.04.195.06.29.06.097 0 .197-.02.292-.06.018-.006.021-.029.034-.037.063-.031.106-.073.156-.12.018-.019.047-.011.063-.03L41.9 11.922a.72.72 0 00.165-.434c0-.016.016-.028.016-.042zM26.965 2.47l3.553 8.256H13.557l3.556-8.256h9.852zm3.543 9.698l-8.473 19.307-8.468-19.307h16.94zm-18.525 0l7.53 17.171L4.32 12.168h7.663zm20.11 0h7.659L24.559 29.335l7.533-17.168zm8.172-1.442h-8.17L28.542 2.47h8.214l3.51 8.256zM7.32 2.47h8.22l-3.556 8.256H3.81L7.319 2.47z"/></svg>