<svg xmlns="http://www.w3.org/2000/svg" width="42" height="40"><path fill-rule="evenodd" fill="#ff3b4a" d="M40.7 14.067a23.15 23.15 0 00-4.609-7.559 23.15 23.15 0 00-7.113-5.27.833.833 0 00-.925.139L10.565 17.339l-2.02 1.843a.856.856 0 00-.26.345c-.01.02-.019.048-.028.073L3.555 31.81l-2.007 5.216a.835.835 0 00.779 1.132c.076 0 .154-.01.23-.033L7.936 36.6l12.65-3.587a.858.858 0 00.345-.191l2.065-1.885 17.485-15.963a.836.836 0 00.219-.908zM4.78 33.273c.033.022.072.035.106.052.358.225.691.473.967.78a4.6 4.6 0 01.685 1.029c.022.034.03.076.046.113l-2.878.818 1.074-2.792zm15.166-1.815L8.233 34.78c-.033-.072-.09-.126-.127-.197-.27-.587-.595-1.14-1.019-1.606-.427-.466-.949-.836-1.51-1.16-.07-.04-.112-.103-.182-.14l4.372-11.351 1.31-1.19 1.058 1.157 9.114 9.975-1.303 1.19zm2.537-2.317l-2.646-2.896 13.901-12.683a.845.845 0 00.27-.622.836.836 0 00-1.398-.612l-13.9 12.683-.543-.598-2.083-2.284L29.979 9.447a.84.84 0 00.054-1.182.843.843 0 00-1.182-.052L14.952 20.899l-2.641-2.894L28.757 2.993a21.336 21.336 0 016.1 4.645 21.455 21.455 0 014.075 6.49L22.483 29.14z"/></svg>