<svg xmlns="http://www.w3.org/2000/svg" width="43" height="44"><path fill-rule="evenodd" fill="#ff3b4a" d="M21.711 27.657c-3.06 0-5.55-2.494-5.55-5.565 0-3.07 2.49-5.563 5.55-5.563 3.057 0 5.544 2.494 5.544 5.563 0 3.071-2.487 5.565-5.544 5.565zm0-9.686a4.12 4.12 0 00-4.111 4.12 4.122 4.122 0 004.111 4.124c2.263 0 4.106-1.851 4.106-4.123 0-2.272-1.843-4.121-4.106-4.121zm-2.417 24.218a.722.722 0 01-.697-.545L17.36 36.68a15.521 15.521 0 01-2.832-1.205l-4.401 2.65a.722.722 0 01-.877-.107l-3.42-3.43a.72.72 0 01-.106-.88l2.641-4.407a15.146 15.146 0 01-1.177-2.838l-4.975-1.247a.724.724 0 01-.546-.698v-4.844a.72.72 0 01.546-.7l4.946-1.238a15.8 15.8 0 011.204-2.845L5.72 10.477a.725.725 0 01.107-.881l3.414-3.423a.71.71 0 01.88-.108l4.4 2.646a15.222 15.222 0 012.827-1.177l1.243-4.99a.721.721 0 01.697-.547h4.831c.33 0 .619.226.697.547l1.237 4.966a16.05 16.05 0 012.83 1.198l4.406-2.651a.735.735 0 01.877.11l3.414 3.424c.235.233.28.596.11.882l-2.642 4.42c.486.905.88 1.855 1.172 2.825l4.98 1.252a.719.719 0 01.546.7v4.84c0 .329-.225.62-.546.697l-4.98 1.252c-.292.98-.686 1.929-1.17 2.829l2.645 4.416a.721.721 0 01-.11.882l-3.414 3.43a.73.73 0 01-.877.11l-4.406-2.653c-.908.497-1.858.898-2.832 1.205l-1.232 4.963a.721.721 0 01-.7.545l-4.831.003zm-4.78-8.267c.123 0 .249.031.36.096a14.178 14.178 0 003.28 1.39c.247.07.438.273.503.523l1.2 4.815 3.707-.003 1.198-4.817a.721.721 0 01.501-.518 14.242 14.242 0 003.279-1.391.713.713 0 01.728.003l4.281 2.58 2.623-2.635-2.57-4.29a.73.73 0 01-.009-.733 13.642 13.642 0 001.355-3.27.717.717 0 01.52-.509l4.839-1.217v-3.714l-4.84-1.216a.714.714 0 01-.519-.51 13.892 13.892 0 00-1.355-3.272.729.729 0 01.008-.73l2.566-4.29-2.62-2.628-4.281 2.576a.703.703 0 01-.729.006 14.397 14.397 0 00-3.278-1.392.713.713 0 01-.501-.517l-1.2-4.82h-3.707l-1.209 4.848a.72.72 0 01-.509.52 13.89 13.89 0 00-3.268 1.362.7.7 0 01-.728-.007L9.863 7.588l-2.62 2.631 2.566 4.285a.722.722 0 01.005.732 14.468 14.468 0 00-1.389 3.293.72.72 0 01-.52.506l-4.8 1.203v3.715l4.835 1.215a.718.718 0 01.519.511 13.785 13.785 0 001.36 3.275.72.72 0 01-.008.732L7.245 33.97l2.624 2.632 4.275-2.576a.715.715 0 01.37-.104z"/></svg>