<svg xmlns="http://www.w3.org/2000/svg" width="46" height="36"><path fill-rule="evenodd" fill="#ff3b4a" d="M44.955 18.446V8.044a.788.788 0 00-.79-.782h-15.04V2.775a.783.783 0 00-.788-.779H1.797a.785.785 0 00-.79.779v26.192c0 .432.355.78.79.78h2.667c.435 0 .79-.348.79-.78a.786.786 0 00-.79-.781h-1.88V3.552h24.962v19.589c0 .43.355.781.79.781a.785.785 0 00.788-.78V8.821h6.339v9.715c0 .43.352.779.787.779h7.126v8.87h-1.85a.784.784 0 00-.787.78c0 .433.352.78.787.78h2.638c.435 0 .79-.347.79-.78v-10.34c.003-.036.038-.054.038-.089 0-.036-.035-.055-.037-.091zm-1.579-.69h-6.338V8.822h6.338v8.934zm-9.775 5.196c-3.36 0-6.092 2.699-6.092 6.017 0 3.32 2.732 6.02 6.092 6.02 3.354 0 6.083-2.7 6.083-6.02 0-3.318-2.729-6.017-6.083-6.017zm0 10.477c-2.489 0-4.514-2-4.514-4.46 0-2.459 2.025-4.458 4.514-4.458 2.483 0 4.505 2 4.505 4.458 0 2.46-2.022 4.46-4.505 4.46zM12.397 22.95c-3.36 0-6.089 2.7-6.089 6.018 0 3.32 2.73 6.019 6.09 6.019 3.356 0 6.089-2.698 6.089-6.02 0-3.318-2.733-6.018-6.09-6.018zm0 10.478c-2.489 0-4.514-2-4.514-4.46s2.025-4.457 4.514-4.457c2.486 0 4.512 1.998 4.512 4.457 0 2.46-2.026 4.46-4.512 4.46zm13.27-5.241h-5.339a.784.784 0 00-.787.78c0 .433.352.78.787.78h5.34a.783.783 0 00.787-.78.784.784 0 00-.788-.78z"/></svg>